<?xml version="1.0" standalone="no"?>
<!DOCTYPE svg PUBLIC "-//W3C//DTD SVG 20010904//EN"
 "http://www.w3.org/TR/2001/REC-SVG-20010904/DTD/svg10.dtd">
<svg version="1.0" xmlns="http://www.w3.org/2000/svg"
 width="2000.000000pt" height="2000.000000pt" viewBox="0 0 2000.000000 2000.000000"
 preserveAspectRatio="xMidYMid meet">

<g transform="translate(0.000000,2000.000000) scale(0.100000,-0.100000)"
fill="#000000" stroke="none">
<path d="M8485 18083 c-47 -12 -58 -33 -51 -103 15 -145 54 -391 87 -545 6
-27 11 -61 13 -75 1 -14 6 -31 10 -38 4 -7 5 -16 2 -20 -3 -5 4 -53 14 -108
11 -54 24 -124 30 -154 5 -30 17 -93 26 -140 8 -47 17 -98 20 -113 2 -15 9
-37 15 -48 6 -12 12 -44 14 -72 4 -49 13 -116 36 -247 5 -30 11 -69 12 -85 2
-17 6 -35 9 -40 10 -17 29 -192 22 -209 -3 -9 -12 -16 -20 -16 -8 0 -69 37
-137 83 -67 46 -176 116 -242 156 -66 40 -145 90 -175 110 -30 21 -68 44 -85
53 -16 8 -73 39 -125 68 -342 191 -595 296 -890 370 l-125 31 -17 -22 c-10
-12 -18 -38 -18 -58 0 -69 86 -365 150 -516 5 -11 12 -31 16 -45 12 -42 186
-389 301 -600 53 -96 104 -182 168 -280 34 -52 70 -108 79 -125 22 -36 77
-110 192 -260 46 -60 104 -140 129 -176 45 -64 46 -69 54 -165 5 -55 18 -126
29 -159 21 -61 64 -158 82 -185 6 -8 27 -48 47 -88 l36 -73 -12 -102 c-23
-196 -73 -416 -116 -512 -50 -111 -150 -217 -401 -422 -53 -43 -128 -100 -168
-128 -89 -61 -166 -123 -184 -148 -25 -33 -31 -241 -11 -367 9 -59 15 -71 63
-123 57 -63 53 -61 236 -154 117 -60 131 -71 260 -196 81 -80 153 -142 181
-155 53 -26 112 -28 154 -6 21 11 43 14 73 9 84 -12 170 20 357 133 107 66
191 122 225 152 41 36 429 290 443 290 7 0 33 -35 57 -77 24 -43 56 -94 70
-113 15 -19 54 -80 89 -135 34 -55 88 -137 119 -182 31 -45 68 -101 82 -124
14 -23 36 -58 49 -78 13 -20 57 -101 98 -181 81 -158 120 -216 171 -250 51
-36 136 -23 271 41 222 105 248 116 321 128 36 7 88 19 115 29 31 10 83 16
135 17 76 0 92 -3 150 -32 100 -49 197 -141 276 -259 79 -120 82 -110 -43
-119 -59 -3 -126 -9 -147 -11 -21 -3 -97 -6 -168 -9 -70 -2 -131 -6 -136 -8
-12 -8 -158 -19 -287 -22 -66 -2 -183 -10 -260 -19 -77 -9 -178 -18 -225 -21
-47 -2 -161 -11 -255 -20 -93 -8 -237 -19 -320 -25 -238 -15 -615 -58 -755
-85 -41 -8 -86 -17 -100 -19 -68 -12 -250 -48 -285 -57 -22 -6 -60 -15 -85
-20 -25 -6 -82 -19 -127 -30 -45 -12 -86 -18 -91 -15 -5 3 -52 -7 -103 -23
-52 -16 -139 -41 -194 -56 -55 -15 -167 -49 -249 -77 -82 -27 -167 -53 -190
-58 -23 -5 -59 -14 -81 -20 -22 -6 -65 -15 -95 -20 -30 -5 -86 -17 -125 -25
-38 -9 -92 -20 -120 -25 -27 -5 -66 -13 -85 -18 -19 -5 -69 -15 -110 -22 -41
-6 -91 -15 -110 -20 -19 -5 -73 -16 -120 -25 -101 -18 -115 -21 -430 -80 -135
-26 -253 -51 -262 -56 -9 -4 -65 -16 -125 -26 -59 -9 -109 -20 -111 -25 -2 -4
-19 -10 -38 -14 -19 -3 -34 -10 -34 -14 0 -10 -60 -19 -65 -9 -5 7 -18 5 -150
-30 -44 -12 -113 -24 -154 -26 -41 -3 -80 -10 -88 -16 -10 -9 -13 -8 -13 5 0
12 -10 16 -42 16 -43 0 -239 -36 -387 -71 -46 -11 -84 -19 -85 -17 -6 11 -31
84 -48 138 -11 36 -24 70 -28 75 -4 6 -13 28 -20 50 -20 64 -92 218 -113 242
-11 12 -32 25 -48 28 -49 11 -66 -8 -84 -90 -17 -76 -15 -146 11 -411 7 -69 9
-68 -76 -79 -25 -3 -56 -10 -70 -15 -14 -5 -73 -18 -131 -29 -144 -28 -356
-78 -399 -95 -19 -7 -57 -16 -85 -20 -27 -4 -70 -13 -95 -21 -105 -31 -194
-47 -198 -36 -2 6 -9 17 -16 24 -19 20 -86 114 -86 121 0 14 -149 204 -181
230 -17 15 -58 40 -90 57 -66 33 -107 32 -185 -3 -54 -23 -75 -57 -81 -130 -3
-32 -9 -61 -14 -63 -4 -3 -20 12 -36 32 -34 47 -46 55 -103 70 -67 19 -104 16
-164 -13 -48 -23 -60 -35 -91 -89 -19 -35 -41 -65 -48 -68 -6 -2 -48 -2 -92 1
-68 4 -87 1 -122 -16 -57 -30 -93 -69 -126 -138 -16 -32 -32 -66 -37 -74 -6
-12 -29 -15 -111 -15 -96 0 -108 -2 -150 -27 -45 -27 -55 -41 -79 -104 -11
-31 -8 -66 19 -219 5 -27 8 -51 7 -51 0 -1 -48 -15 -106 -31 -101 -29 -182
-49 -375 -93 -49 -11 -136 -33 -193 -48 l-102 -26 -22 -56 c-17 -45 -21 -77
-22 -180 -1 -166 21 -262 90 -405 36 -75 111 -175 156 -208 l28 -21 137 38
c76 21 210 56 298 77 88 22 181 45 207 53 42 12 48 12 61 -3 23 -27 135 -234
157 -292 57 -145 186 -359 280 -464 30 -34 80 -90 110 -126 30 -35 84 -93 121
-129 77 -76 132 -158 166 -249 29 -78 58 -112 171 -203 118 -95 188 -170 273
-291 39 -56 97 -136 129 -178 67 -90 293 -431 336 -508 11 -18 24 -41 29 -50
15 -25 113 -180 147 -234 25 -39 29 -53 21 -70 -6 -12 -59 -89 -119 -172 -59
-82 -169 -235 -244 -340 -75 -104 -162 -224 -193 -265 -31 -41 -60 -79 -65
-85 -351 -469 -459 -618 -485 -673 -20 -43 -22 -62 -22 -217 0 -113 6 -210 18
-288 10 -65 15 -122 12 -127 -6 -9 27 -312 45 -415 6 -33 15 -87 20 -120 5
-33 17 -98 25 -145 30 -161 46 -255 60 -355 24 -161 45 -285 62 -365 9 -41 16
-82 16 -90 0 -8 3 -19 7 -25 4 -5 13 -44 19 -85 7 -41 16 -84 20 -95 7 -17 25
-94 36 -155 1 -8 6 -23 10 -33 4 -10 5 -20 2 -23 -3 -3 3 -29 13 -57 10 -28
16 -55 13 -60 -2 -4 1 -14 7 -22 6 -8 9 -19 5 -25 -4 -6 -2 -16 3 -23 6 -7 13
-30 16 -52 3 -22 10 -58 16 -80 6 -22 19 -78 30 -125 18 -86 66 -262 139 -510
21 -74 54 -187 72 -250 17 -63 44 -155 58 -205 l27 -90 5686 -3 5685 -2 18 87
c9 49 20 115 24 148 10 99 5 375 -8 446 -16 82 -21 71 117 248 120 155 189
236 315 371 49 52 157 178 240 279 84 101 187 222 230 269 117 126 237 280
237 305 2 88 28 292 51 396 6 25 14 113 19 195 14 219 13 215 62 286 105 153
126 226 134 467 6 189 -7 429 -33 601 -14 94 -14 300 -1 627 2 44 -9 327 -13
335 -1 3 -3 23 -4 45 -6 100 -46 211 -159 441 -118 241 -176 367 -176 385 0 8
-4 19 -9 25 -5 5 -23 47 -41 94 -17 47 -37 99 -44 115 -60 143 -106 278 -106
310 0 13 13 46 28 72 16 26 39 71 52 98 13 28 62 120 108 205 87 159 139 281
236 550 31 85 67 184 81 220 13 36 28 81 34 100 5 19 21 67 35 105 13 39 50
142 81 230 149 423 258 791 299 1005 33 176 47 465 34 705 -4 73 -12 108 -42
185 -21 52 -44 102 -51 110 -7 8 -43 60 -81 115 -108 159 -211 275 -375 421
-69 61 -247 113 -395 115 -38 1 -92 7 -121 14 -93 24 -163 48 -163 57 0 4 93
7 208 6 147 -1 245 3 337 16 340 44 466 57 607 61 84 2 198 10 253 19 55 8
147 17 205 21 58 3 137 10 175 15 39 5 172 14 297 20 124 6 250 15 280 20 56
10 198 17 493 24 179 4 250 8 500 26 121 9 218 12 730 25 415 11 515 17 515
34 0 26 -88 137 -148 187 -113 94 -350 206 -562 264 -205 56 -582 114 -810
125 -74 3 -176 8 -227 11 -51 3 -226 0 -390 -6 -164 -5 -361 -13 -438 -15 -77
-3 -156 -7 -175 -10 -19 -2 -109 -7 -200 -10 -91 -3 -298 -14 -460 -25 -162
-10 -344 -22 -405 -25 -60 -3 -177 -12 -260 -20 -82 -8 -269 -22 -415 -30
-400 -23 -644 -43 -866 -70 -111 -14 -210 -25 -221 -25 -26 0 -188 163 -242
244 -8 12 -25 33 -39 48 -57 62 -112 169 -160 313 -115 348 -140 494 -147 868
l-3 158 33 24 c17 14 39 25 47 25 19 0 53 -37 70 -75 7 -17 20 -30 28 -30 8 0
30 -27 48 -60 18 -33 30 -49 26 -35 -10 39 -32 79 -87 157 l-50 72 28 41 c15
22 29 40 31 40 2 0 25 -12 51 -27 52 -29 117 -101 164 -185 24 -41 29 -46 24
-23 -10 46 -53 114 -112 177 -30 31 -51 58 -46 61 4 2 43 -4 85 -14 103 -25
258 -98 281 -133 10 -14 22 -24 27 -21 6 4 40 -24 76 -60 36 -36 64 -61 62
-56 -7 21 -191 201 -205 201 -8 0 -34 13 -57 28 -22 15 -50 31 -60 35 -10 4
-17 10 -14 12 3 3 47 14 99 25 121 26 243 68 399 137 169 76 253 127 325 197
33 33 63 59 66 58 4 -1 23 48 43 109 33 99 38 127 49 287 14 213 13 449 -2
495 -11 33 -44 72 -84 100 -17 12 -17 16 -3 58 14 40 36 135 53 224 3 17 8 73
10 127 4 85 2 105 -21 170 -14 41 -37 96 -52 123 -36 64 -137 170 -229 241
-41 31 -77 64 -80 74 -8 26 -86 95 -136 121 -93 47 -151 61 -279 68 l-125 6 3
70 c4 77 -19 194 -49 260 -25 54 -27 132 -5 230 38 169 97 517 97 574 0 74 5
146 11 156 4 6 12 68 19 138 10 114 10 129 -5 152 -9 14 -25 25 -36 25 -10 0
-22 5 -25 10 -7 11 -57 13 -92 4 -29 -8 -41 -47 -48 -164 -4 -52 -8 -97 -10
-100 -4 -7 -14 -118 -25 -275 -8 -122 -35 -355 -45 -382 -9 -27 -25 -10 -80
88 -68 119 -127 200 -248 333 -129 142 -223 225 -375 327 -282 190 -542 291
-812 318 -274 27 -414 30 -718 16 -216 -9 -539 -66 -657 -115 -11 -4 -51 -13
-89 -19 -134 -23 -474 -177 -632 -287 -52 -36 -98 -64 -103 -62 -9 3 -241 219
-311 289 -19 19 -69 64 -110 100 -41 35 -77 66 -80 69 -20 20 -159 127 -225
172 -105 73 -325 202 -445 260 -135 67 -237 90 -315 71z m5661 -2314 c100 -26
168 -58 219 -104 22 -20 31 -32 20 -27 -110 53 -199 81 -335 107 -77 15 -140
31 -140 36 0 17 155 9 236 -12z m395 -315 c38 -31 77 -70 88 -87 54 -88 81
-256 66 -411 -9 -103 -26 -95 -46 25 -30 178 -56 256 -129 395 -39 74 -65 134
-59 134 7 0 43 -25 80 -56z m190 -211 c39 -80 27 -284 -24 -427 -21 -58 -28
-28 -9 40 11 41 16 99 16 194 0 121 -4 152 -31 245 -10 35 23 -1 48 -52z m33
-1535 c-25 -49 -93 -138 -106 -138 -7 0 0 12 14 28 14 15 43 58 64 96 37 68
62 80 28 14z m-1251 -464 c21 -7 22 -18 1 -35 -12 -10 -19 -10 -32 -1 -10 7
-27 16 -39 22 -13 5 -23 15 -23 21 0 11 43 7 93 -7z m-59 -50 c19 -7 21 -34 3
-34 -14 0 -37 20 -37 32 0 10 13 10 34 2z m-4889 -3204 c3 -5 -13 -23 -37 -40
-39 -28 -194 -198 -243 -267 -129 -179 -160 -224 -177 -263 -24 -54 -123 -262
-145 -306 -11 -21 -22 -30 -33 -27 -23 6 -113 -40 -138 -71 -10 -14 -31 -60
-46 -103 -54 -157 -144 -347 -314 -665 -66 -123 -143 -268 -173 -323 -86 -161
-96 -183 -144 -320 -100 -282 -177 -509 -223 -655 -41 -129 -214 -596 -258
-695 -65 -146 -144 -382 -146 -440 l-2 -55 -38 0 c-48 0 -113 -25 -161 -62
-33 -26 -48 -30 -127 -35 l-89 -6 -64 51 c-75 60 -237 143 -322 165 -33 8
-116 32 -185 52 -179 52 -293 83 -390 104 -47 11 -128 29 -180 40 -52 12 -120
34 -150 50 -30 16 -66 31 -80 34 -15 4 -35 23 -50 46 -13 22 -43 56 -67 76
-38 32 -155 173 -307 372 -74 97 -243 347 -321 477 -33 55 -75 122 -92 150
-18 28 -36 58 -39 66 -4 8 -17 29 -28 45 -22 31 -126 239 -126 252 0 5 -6 19
-13 33 -28 55 -68 182 -82 263 -10 62 -6 496 6 582 17 122 26 276 18 319 -7
37 -6 39 35 56 38 17 113 36 246 61 59 11 126 28 212 53 45 13 93 25 204 53
19 4 24 -5 49 -84 15 -48 38 -113 52 -143 14 -30 33 -73 43 -96 10 -23 33 -58
51 -79 30 -33 37 -37 71 -32 20 3 44 12 53 20 35 35 44 306 16 447 -15 74 -9
97 26 97 16 1 80 13 143 28 63 15 158 33 210 39 120 16 141 27 175 93 1 2 69
17 151 34 142 29 202 40 462 88 63 12 117 23 122 26 4 3 25 7 46 11 22 3 55 9
74 14 19 5 64 14 100 20 88 15 84 14 270 53 91 20 183 38 205 42 73 13 302 57
415 80 41 9 127 24 190 35 108 19 218 39 320 60 25 5 83 16 130 25 47 9 103
21 125 26 22 5 87 16 143 24 57 9 111 19 120 24 10 4 31 7 47 7 17 -1 32 1 35
5 3 3 61 13 130 23 227 30 280 40 280 48 0 11 7 10 15 -2z m-4175 -25 c-7 -9
-15 -13 -17 -11 -7 7 7 26 19 26 6 0 6 -6 -2 -15z m770 -625 c0 -5 -4 -10 -10
-10 -5 0 -10 5 -10 10 0 6 5 10 10 10 6 0 10 -4 10 -10z m-605 -160 c18 -8 17
-9 -7 -9 -16 -1 -28 4 -28 9 0 12 8 12 35 0z m10652 -2762 c-3 -8 -6 -5 -6 6
-1 11 2 17 5 13 3 -3 4 -12 1 -19z m23 -73 c10 -13 41 -117 36 -122 -7 -7 -45
95 -49 133 -3 21 -2 30 0 19 3 -11 9 -24 13 -30z m136 -338 c9 -27 13 -51 10
-54 -8 -8 -45 77 -52 119 l-5 33 15 -25 c8 -14 23 -47 32 -73z m77 -197 c14
-30 29 -68 32 -83 4 -15 11 -30 16 -33 5 -3 9 -13 9 -22 0 -26 -46 56 -66 118
-9 30 -23 64 -30 75 -6 11 -14 34 -18 50 -5 26 -3 24 13 -10 10 -22 30 -65 44
-95z m241 -546 c3 -8 2 -12 -4 -9 -6 3 -10 10 -10 16 0 14 7 11 14 -7z m13
-86 c-3 -7 -5 -2 -5 12 0 14 2 19 5 13 2 -7 2 -19 0 -25z m53 -264 c0 -8 -4
-14 -10 -14 -5 0 -10 9 -10 21 0 11 5 17 10 14 6 -3 10 -13 10 -21z m23 -1044
c6 -160 -6 -113 -17 66 -4 67 -3 103 2 94 6 -8 12 -80 15 -160z m-12 -463 c-8
-8 -11 -7 -11 4 0 20 13 34 18 19 3 -7 -1 -17 -7 -23z m-11 -63 c0 -8 -5 -12
-10 -9 -6 4 -8 11 -5 16 9 14 15 11 15 -7z m-17 -82 c-6 -24 -23 -30 -23 -9 0
13 21 39 26 34 2 -2 1 -13 -3 -25z m-37 -106 c-19 -41 -39 -83 -45 -93 -13
-22 -15 0 -2 25 17 32 35 77 36 87 2 18 25 55 35 55 5 0 -6 -33 -24 -74z
m-101 -205 c-8 -17 -20 -33 -26 -37 -7 -4 -9 -3 -6 3 4 6 11 22 16 37 6 14 15
26 21 26 6 0 4 -12 -5 -29z m-2055 -564 c0 -2 -10 -12 -22 -23 l-23 -19 19 23
c18 21 26 27 26 19z m1600 -402 c-7 -8 -17 -15 -22 -15 -6 0 -5 7 2 15 7 8 17
15 22 15 6 0 5 -7 -2 -15z m-85 -55 c-3 -5 -11 -10 -16 -10 -6 0 -7 5 -4 10 3
6 11 10 16 10 6 0 7 -4 4 -10z m-136 -84 c-19 -16 -92 -56 -96 -52 -3 2 17 18
43 35 27 16 51 28 53 25 2 -2 2 -6 0 -8z m-129 -81 c-7 -9 -15 -13 -17 -11 -7
7 7 26 19 26 6 0 6 -6 -2 -15z m-89 -54 c-13 -10 -109 -70 -212 -132 -104 -63
-202 -122 -219 -132 -16 -10 -35 -17 -42 -15 -6 2 24 24 67 48 82 45 314 185
375 226 41 28 66 32 31 5z m-657 -383 c-5 -14 -113 -72 -120 -65 -3 3 115 77
123 77 1 0 0 -6 -3 -12z"/>
<path d="M14646 13452 c-30 -34 -37 -45 -17 -27 30 27 77 85 69 85 -2 0 -25
-26 -52 -58z"/>
<path d="M14559 13373 c-13 -16 -12 -17 4 -4 9 7 17 15 17 17 0 8 -8 3 -21
-13z"/>
<path d="M13940 13185 c35 -20 62 -19 36 0 -11 8 -29 15 -40 15 -19 -1 -19 -2
4 -15z"/>
<path d="M13583 12895 c0 -44 2 -61 4 -37 2 23 2 59 0 80 -2 20 -4 1 -4 -43z"/>
</g>
</svg>
